<svg xmlns="http://www.w3.org/2000/svg" viewBox="0 0 128 128"><g fill="#00acd7"><path fill-rule="evenodd" clip-rule="evenodd" d="M11.156 54.829c-.243 0-.303-.122-.182-.303l1.273-1.637c.12-.182.424-.303.666-.303H34.03c.243 0 .303.182.182.364l-1.03 1.576c-.121.181-.424.363-.606.363zM2.004 60.404c-.242 0-.303-.12-.182-.303l1.273-1.636c.121-.182.424-.303.667-.303h27.636c.242 0 .364.182.303.364l-.485 1.454c-.06.243-.303.364-.545.364zM16.67 65.98c-.242 0-.302-.182-.181-.364l.848-1.515c.122-.182.364-.363.607-.363h12.12c.243 0 .364.181.364.424l-.12 1.454c0 .243-.243.425-.425.425zM79.58 53.738c-3.819.97-6.425 1.697-10.182 2.666-.91.243-.97.303-1.758-.606-.909-1.03-1.576-1.697-2.848-2.303-3.819-1.878-7.516-1.333-10.97.91-4.121 2.666-6.242 6.605-6.182 11.514.06 4.849 3.394 8.849 8.182 9.516 4.121.545 7.576-.91 10.303-4 .545-.667 1.03-1.394 1.636-2.243H56.064c-1.272 0-1.575-.788-1.151-1.818.788-1.879 2.242-5.03 3.09-6.606.183-.364.607-.97 1.516-.97h22.06c-.12 1.637-.12 3.273-.363 4.91-.667 4.363-2.303 8.363-4.97 11.878-4.364 5.758-10.06 9.333-17.273 10.303-5.939.788-11.454-.364-16.302-4-4.485-3.394-7.273-7.879-8.182-13.516-1.21-7.697 1.151-14.546 6.545-20.364 4.122-4.424 9.273-7.152 15.333-8.06 6.364-.97 12.243.181 17.454 4.181 3.091 2.364 5.212 5.394 6.484 9.03.364.546.122.787-.606.97z"/></g></svg>
